<svg width="24" height="24" viewBox="0 0 24 24" fill="none" xmlns="http://www.w3.org/2000/svg">
<path d="M7.1696 21.975C6.67314 21.975 6.2499 21.7982 5.8999 21.4447C5.5499 21.0912 5.3749 20.6661 5.3749 20.1697C5.3749 19.6732 5.55167 19.25 5.9052 18.9C6.25875 18.55 6.68375 18.375 7.1802 18.375C7.67667 18.375 8.0999 18.5518 8.4499 18.9053C8.7999 19.2589 8.9749 19.6839 8.9749 20.1803C8.9749 20.6768 8.79814 21.1 8.4446 21.45C8.09105 21.8 7.66605 21.975 7.1696 21.975ZM17.1696 21.975C16.6731 21.975 16.2499 21.7982 15.8999 21.4447C15.5499 21.0912 15.3749 20.6661 15.3749 20.1697C15.3749 19.6732 15.5517 19.25 15.9052 18.9C16.2588 18.55 16.6838 18.375 17.1802 18.375C17.6767 18.375 18.0999 18.5518 18.4499 18.9053C18.7999 19.2589 18.9749 19.6839 18.9749 20.1803C18.9749 20.6768 18.7981 21.1 18.4446 21.45C18.0911 21.8 17.6661 21.975 17.1696 21.975ZM5.8749 5.475L8.6249 11.175H15.8249L18.9499 5.475H5.8749ZM5.1249 3.975H19.8518C20.2345 3.975 20.5257 4.15 20.7254 4.5C20.9251 4.85 20.9249 5.2 20.7249 5.55L17.3499 11.625C17.1666 11.9417 16.9286 12.1958 16.6359 12.3875C16.3433 12.5792 16.0229 12.675 15.6749 12.675H8.0999L6.6999 15.275H18.9749V16.775H6.9249C6.2249 16.775 5.72074 16.5417 5.4124 16.075C5.10407 15.6083 5.10824 15.0833 5.4249 14.5L7.0249 11.55L3.2249 3.5H1.2749V2H4.1999L5.1249 3.975Z" fill="black"/>
</svg>
