<?xml version="1.0" standalone="no"?>
<!DOCTYPE svg PUBLIC "-//W3C//DTD SVG 20010904//EN"
 "http://www.w3.org/TR/2001/REC-SVG-20010904/DTD/svg10.dtd">
<svg version="1.0" xmlns="http://www.w3.org/2000/svg"
 width="512.000000pt" height="512.000000pt" viewBox="0 0 512.000000 512.000000"
 preserveAspectRatio="xMidYMid meet">

<g transform="translate(0.000000,512.000000) scale(0.100000,-0.100000)"
fill="#000000" stroke="none">
<path d="M1 4413 c1 -447 5 -680 10 -633 40 356 187 675 422 917 224 231 503
371 818 412 39 5 -194 9 -593 10 l-658 1 1 -707z"/>
<path d="M1630 5105 c325 -52 620 -226 848 -499 42 -50 78 -91 82 -91 4 0 40
41 82 91 227 273 524 447 848 499 74 11 -45 13 -930 13 -885 0 -1004 -2 -930
-13z"/>
<path d="M3869 5109 c599 -77 1079 -536 1210 -1155 12 -55 25 -133 30 -174 5
-47 9 186 10 633 l1 707 -657 -1 c-400 -1 -633 -5 -594 -10z"/>
<path d="M1242 4805 c-307 -54 -574 -236 -744 -505 -202 -321 -253 -764 -132
-1137 59 -184 185 -403 347 -607 106 -133 496 -522 723 -722 315 -278 1114
-959 1124 -959 14 0 1037 878 1250 1072 218 199 490 477 593 606 213 266 343
521 394 775 26 132 24 404 -5 539 -111 515 -453 861 -932 939 -248 41 -509
-13 -720 -151 -109 -70 -291 -257 -375 -385 -39 -57 -85 -114 -103 -126 -63
-43 -157 -40 -216 7 -14 11 -56 66 -93 122 -85 128 -266 313 -377 385 -92 59
-195 105 -304 133 -103 27 -316 34 -430 14z"/>
<path d="M1 1733 l-1 -1733 2560 0 2560 0 -1 1733 c-1 952 -5 1701 -10 1664
-36 -314 -166 -622 -387 -921 -118 -159 -231 -286 -426 -481 -220 -219 -406
-385 -991 -886 -247 -212 -477 -409 -510 -438 -86 -77 -142 -101 -235 -101
-57 0 -86 6 -122 23 -45 21 -844 699 -1257 1067 -437 388 -743 726 -909 1001
-143 239 -235 494 -260 724 -6 50 -10 -572 -11 -1652z"/>
</g>
</svg>
