<svg width="64" height="64" viewBox="0 0 64 64" fill="none" xmlns="http://www.w3.org/2000/svg">
<g clip-path="url(#clip0_310_22)">
<mask id="mask0_310_22" style="mask-type:luminance" maskUnits="userSpaceOnUse" x="0" y="0" width="64" height="63">
<path d="M0.651001 0H63.3437V62.6927H0.651001V0Z" fill="white"/>
</mask>
<g mask="url(#mask0_310_22)">
<path d="M63.349 53.1615C63.349 58.4219 59.0833 62.6875 53.8229 62.6875H10.1823C4.92187 62.6875 0.65625 58.4219 0.65625 53.1615V9.52084C0.65625 4.26042 4.92187 -0.00520325 10.1823 -0.00520325H53.8229C59.0833 -0.00520325 63.349 4.26042 63.349 9.52084V53.1615Z" fill="#1A4789"/>
</g>
<path d="M42.1927 36.2136L43.2084 28.349H35.4271V23.3333C35.4271 21.0573 36.0573 19.5052 39.323 19.5052H43.4792V12.474C42.7657 12.375 40.2969 12.1615 37.4167 12.1615C31.4167 12.1615 27.3073 15.8281 27.3073 22.5573V28.349H20.5209V36.2136H27.3073V56.3802H35.4271V36.2136H42.1927Z" fill="white"/>
</g>
<defs>
<clipPath id="clip0_310_22">
<rect width="64" height="64" fill="white"/>
</clipPath>
</defs>
</svg>
