<svg width="280" height="21" viewBox="0 0 280 21" fill="none" xmlns="http://www.w3.org/2000/svg">
<g clip-path="url(#clip0_245_93)">
<path d="M0 0H25L29.1667 4.16667H16.6667V20.8333H12.5V4.16667H4.16667L0 0Z" fill="#00FCF8"/>
<path d="M62.4948 20.8333H33.3281V16.6667H58.3281L62.4948 20.8333ZM62.4948 12.5H33.3281V8.33333H58.3281L62.4948 12.5ZM62.4948 4.16667H33.3281V0H58.3281L62.4948 4.16667Z" fill="#00FCF8"/>
<path d="M66.6562 4.16667V0H91.6563C94.4323 0 95.8229 1.39063 95.8229 4.16667V8.33333C95.8229 11.1146 94.4531 12.5 91.7188 12.5H87.4896L95.8229 20.8333H90.6146L82.2813 12.5H70.8229V20.8333H66.6562V8.33333H91.6563V4.16667H66.6562Z" fill="#00FCF8"/>
<path d="M99.9844 4.16667C99.9844 1.39063 101.37 0 104.151 0H124.984C127.76 0 129.151 1.39063 129.151 4.16667V20.8333H124.984V12.5H104.151V20.8333H99.9844V8.33333H124.984V4.16667H99.9844Z" fill="#00FCF8"/>
<path d="M179.143 4.16667H154.143V8.33333H174.977C177.753 8.33333 179.143 9.72396 179.143 12.5V16.6667C179.143 19.4479 177.753 20.8333 174.977 20.8333H149.977V16.6667H174.977V12.5H154.143C151.362 12.5 149.977 11.1146 149.977 8.33333V4.16667C149.977 1.39063 151.362 0 154.143 0H179.143V4.16667Z" fill="#00FCF8"/>
<path d="M187.471 0V8.33333H208.305V0H212.471V20.8333H208.305V12.5H187.471V20.8333H183.305V0H187.471Z" fill="#00FCF8"/>
<path d="M220.799 4.16667V16.6667H241.633V4.16667H220.799ZM220.799 0H241.633C244.409 0 245.799 1.39063 245.799 4.16667V16.6667C245.799 19.4479 244.409 20.8333 241.633 20.8333H220.799C218.018 20.8333 216.633 19.4479 216.633 16.6667V4.16667C216.633 1.39063 218.018 0 220.799 0Z" fill="#00FCF8"/>
<path d="M249.961 4.16667V0H274.961C277.737 0 279.128 1.39063 279.128 4.16667V8.33333C279.128 11.1146 277.737 12.5 274.961 12.5H254.128V20.8333H249.961V8.33333H274.961V4.16667H249.961Z" fill="#00FCF8"/>
</g>
<defs>
<clipPath id="clip0_245_93">
<rect width="280" height="21" fill="white"/>
</clipPath>
</defs>
</svg>
