<svg width="25" height="25" viewBox="0 0 25 25" fill="none" xmlns="http://www.w3.org/2000/svg">
<path d="M9.4375 17.9167L17.9167 12.5L9.4375 7.08334V17.9167ZM12.5 25C10.7847 25 9.16668 24.6719 7.64584 24.0156C6.12501 23.3594 4.79861 22.4653 3.66666 21.3333C2.53472 20.2014 1.64063 18.875 0.984375 17.3542C0.328125 15.8333 0 14.2153 0 12.5C0 10.7708 0.328125 9.14583 0.984375 7.625C1.64063 6.10417 2.53472 4.78125 3.66666 3.65625C4.79861 2.53125 6.12501 1.64063 7.64584 0.984375C9.16668 0.328125 10.7847 0 12.5 0C14.2292 0 15.8542 0.328125 17.375 0.984375C18.8958 1.64063 20.2188 2.53125 21.3438 3.65625C22.4688 4.78125 23.3594 6.10417 24.0156 7.625C24.6719 9.14583 25 10.7708 25 12.5C25 14.2153 24.6719 15.8333 24.0156 17.3542C23.3594 18.875 22.4688 20.2014 21.3438 21.3333C20.2188 22.4653 18.8958 23.3594 17.375 24.0156C15.8542 24.6719 14.2292 25 12.5 25ZM12.5 22.9167C15.4028 22.9167 17.8646 21.9028 19.8854 19.875C21.9063 17.8472 22.9167 15.3889 22.9167 12.5C22.9167 9.59723 21.9063 7.13542 19.8854 5.11456C17.8646 3.09373 15.4028 2.08331 12.5 2.08331C9.61111 2.08331 7.15277 3.09373 5.125 5.11456C3.09721 7.13542 2.08331 9.59723 2.08331 12.5C2.08331 15.3889 3.09721 17.8472 5.125 19.875C7.15277 21.9028 9.61111 22.9167 12.5 22.9167Z" fill="white"/>
</svg>
