<svg width="30" height="31" viewBox="0 0 30 31" fill="none" xmlns="http://www.w3.org/2000/svg">
<path d="M28 30.9722L17.1945 20.1666C16.3611 20.8703 15.3939 21.4212 14.2928 21.8194C13.1917 22.2175 12.02 22.4166 10.7778 22.4166C7.76554 22.4166 5.21618 21.3726 3.12971 19.2847C1.04324 17.1967 0 14.6666 0 11.6944C0 8.7222 1.04399 6.1921 3.13196 4.10413C5.2199 2.01615 7.75462 0.972168 10.7361 0.972168C13.7176 0.972168 16.2477 2.01615 18.3264 4.10413C20.4051 6.1921 21.4445 8.72359 21.4445 11.6986C21.4445 12.8995 21.25 14.0509 20.8611 15.1528C20.4722 16.2546 19.9074 17.2685 19.1667 18.1944L30 28.9722L28 30.9722ZM10.75 19.6389C12.9491 19.6389 14.8183 18.8634 16.3576 17.3125C17.897 15.7615 18.6667 13.8889 18.6667 11.6944C18.6667 9.49995 17.897 7.62725 16.3576 6.07633C14.8183 4.52542 12.9491 3.74996 10.75 3.74996C8.5355 3.74996 6.65317 4.52542 5.103 6.07633C3.55283 7.62725 2.77775 9.49995 2.77775 11.6944C2.77775 13.8889 3.55283 15.7615 5.103 17.3125C6.65317 18.8634 8.5355 19.6389 10.75 19.6389Z" fill="#00FCF8"/>
</svg>
