<svg width="34" height="34" viewBox="0 0 34 34" fill="none" xmlns="http://www.w3.org/2000/svg">
<path d="M10.157 31.1313C9.45365 31.1313 8.85407 30.8809 8.35823 30.38C7.8624 29.8792 7.61448 29.2771 7.61448 28.5738C7.61448 27.8705 7.8649 27.2709 8.36574 26.775C8.8666 26.2792 9.46869 26.0313 10.172 26.0313C10.8753 26.0313 11.4749 26.2817 11.9707 26.7826C12.4666 27.2834 12.7145 27.8855 12.7145 28.5888C12.7145 29.2921 12.4641 29.8917 11.9632 30.3875C11.4624 30.8834 10.8603 31.1313 10.157 31.1313ZM24.3236 31.1313C23.6203 31.1313 23.0207 30.8809 22.5249 30.38C22.0291 29.8792 21.7811 29.2771 21.7811 28.5738C21.7811 27.8705 22.0316 27.2709 22.5324 26.775C23.0333 26.2792 23.6353 26.0313 24.3387 26.0313C25.042 26.0313 25.6416 26.2817 26.1374 26.7826C26.6332 27.2834 26.8811 27.8855 26.8811 28.5888C26.8811 29.2921 26.6307 29.8917 26.1299 30.3875C25.629 30.8834 25.0269 31.1313 24.3236 31.1313ZM8.32282 7.75629L12.2186 15.8313H22.4186L26.8457 7.75629H8.32282ZM7.26032 5.63129H28.1233C28.6656 5.63129 29.0781 5.87921 29.361 6.37504C29.6439 6.87087 29.6436 7.36671 29.3603 7.86254L24.5791 16.4688C24.3193 16.9174 23.9822 17.2775 23.5676 17.549C23.153 17.8205 22.6992 17.9563 22.2061 17.9563H11.4749L9.49157 21.6396H26.8811V23.7646H9.81032C8.81865 23.7646 8.10441 23.4341 7.66761 22.773C7.2308 22.1119 7.23671 21.3681 7.68532 20.5417L9.95198 16.3625L4.56865 4.95837H1.80615V2.83337H5.9499L7.26032 5.63129Z" fill="#00FCF8"/>
</svg>
